<?xml version="1.0" encoding="UTF-8"?>
<svg version="1.1" viewBox="0 0 588 167" xmlns="http://www.w3.org/2000/svg" xmlns:cc="http://creativecommons.org/ns#" xmlns:dc="http://purl.org/dc/elements/1.1/" xmlns:rdf="http://www.w3.org/1999/02/22-rdf-syntax-ns#">
 <metadata>
  <rdf:RDF>
   <cc:Work rdf:about="">
    <dc:format>image/svg+xml</dc:format>
    <dc:type rdf:resource="http://purl.org/dc/dcmitype/StillImage"/>
    <dc:title>Hololive Production logo</dc:title>
   </cc:Work>
  </rdf:RDF>
 </metadata>
 <title>Hololive Production logo</title>
 <desc>A virtual youtuber agency owned by Cover Corporation, with branches in English, Indonesian, and Japanese</desc>
 <g transform="translate(-13 .74)">
  <g transform="translate(0,-574)">
   <g transform="matrix(.31 0 0 .31 1799 678)">
    <g transform="translate(-1440,-281)">
     <g transform="matrix(.9878 0 0 1 -55.04 -3.76)">
      <path transform="translate(1440,281)" d="m-5723 101c-16.12-5.5-28.24-18-31.35-33-0.5448-2.8-0.9694-16-0.9493-28l0.033-23 1.813 5.3c4.136 12 15.12 23 27.24 27 7.17 2.7 19.23 3.6 25.24 2 4.136-1 323.5-151 347.5-164 13.12-6.5 19.43-15.1 23.43-25.1 1.512-4.2 2.404-3.13 2.103 22.1-0.2323 25-0.3635 27-2.524 31-3.535 7.6-8.783 14-15.12 18-5.658 3.9-342.5 164-352.5 167-6.66 2.4-19.23 2.4-26.24 0.072z" style="fill:#f9f9f9;stroke-width:1.001"/>
      <path d="m-4284 336c-14.17-4.72-25.22-14.8-29.24-27.6-2.02-6.33-2.02-9-2.02-165 0-103 0.3637-160 1.005-164 2.422-12.9 11.16-23.8 23.22-28.7 5.558-2.58 8.382-3.18 15.18-3.59 4.844-0.218 10.05 0.127 12.16 0.805 3.738 1.08 343.7 153 355.8 158 15.18 7.68 24.22 25.7 19.2 41.5-4.542 15.8-11.16 20.8-38.39 34.7-88.84 41.7-330.6 155-333.7 156-8.341 2.29-20-0.436-23.22-2.17z" style="fill:#75e5ee;stroke-width:.9995"/>
      <path d="m-4315 302.4-0.2709-141c-0.1806-92 0.081-143 0.7435-147 3.211-17 17.06-30 34.11-33 4.626-0.73 8.338-0.72 12.04 0.039 4.214 0.77 54.28 23 176.6 79 94.42 43 176.6 75.9 180.6 77.9 6.833 3.2 20.07 14 20.07 17 0 0.88-1.344 7.53-4.565 10.6-6.933 6.7 6.462-0.148-199.7 97.9-88.4 42-162.5 74-165.6 75-5.528 1.5-17.17-0.5443-22.79-2.818-6.572-2.12-9.983-3.91-15.15-7.8-6.864-4.55-11.54-12.43-13.85-18.1-0.9884-2.557-1.267-5.186-2.319-7.721z" style="fill:#5edcee;stroke-width:1.002"/>
      <path d="m-4283 477c-16.2-5.4-28.3-17.7-31.3-32.4-0.565-2.94-0.1466-24.89-0.1066-53.39-0.5399-41.33-0.1958-46.2 0.8687-43.97 4.74 14.7 19.93 26.67 37.03 28.57 14.1 2.06 4.44 5.99 187-78.5 91.9-42.2 172-79.5 176-82.4 11.1-5.59 13.8-12.7 21.9-22.3l3.6-6.19 0.965 51c0.966 51-0.323 52-2.52 55.9-3.53 7.46-8.78 13.7-15.1 17.7-5.65 3.83-342 161-352 164-6.66 2.36-19.2 2.36-26.2 0.0707z" style="fill:#26c5fd;stroke-width:.995"/>
      <path d="m-4314 418.3c0.061-20-0.543-23.3 0.678-19.3 4.07 13 14.5 25.9 27.7 29.9 6.41 1.8 18.3 2.1 24.4 0.48 5.09-1.4 349-163 356-167 8.24-5.1 15.3-14 18.3-23 0.448-1.4 0.712 9 0.59 23-0.204 24-0.346 26-2.54 31-3.87 9.5-12.2 17-25.4 24-6.01 3-86.5 41-179 84l-168 79-9.67 0.31c-7.33 0.24-11.2-0.12-15.3-1.5-13.7-7.74-24.8-18.8-27.6-31.2-0.2976-10.19-0.1647-20.8-0.158-29.69z" style="fill:#4e9eed;stroke-width:1.01"/>
     </g>
     <path d="m-3824 193v-153h59.3l0.066 60c0.047 42 0.36 59 1.07 57 3.99-9.8 5.54-13 9.14-16 8.07-7.6 7.49-7.5 36.9-7.5 25.3 0 26.2 0.12 33.1 2.3 21.4 7.6 36.9 27 39.9 51 0.496 3.9 0.924 42 0.933 84l0.03 77h-59.3l-0.564-160-3.21-6.7c-5.35-11-15.6-18-27.2-18s-21.4 6.6-27.2 18l-3.21 6.7-0.564 160h-59.3zm268 152c-10.7-2.9-17.5-7.2-26.2-16-9.04-9.4-13.6-17-15.6-28-2.14-9.2-2.14-112 0-121 2.53-11 7.58-20 16.5-29 8.55-8.6 15.6-13 26.2-16 8.55-2.3 81.7-2.3 90.4 0.042 16.5 4.4 33.1 19 39.9 35 4.47 11 4.86 16 4.86 71 0 57-0.301 61-6.61 74-6.8 14-22.4 27-37.9 31-8.36 2.2-82.6 2.2-90.4 0zm59.3-32c5.83-3.1 11.7-9.2 14.6-16 2.04-4.5 2.04-5.6 2.04-58v-54l-2.72-5.7c-3.01-6.2-8.07-12-14.6-15-6.03-3.3-18.5-3.3-25.3 0.073-5.83 3-11.7 8.9-14.6 15l-2.24 4.7-0.292 52c-0.214 37 0.028 54 0.817 56 2.53 9.3 9.72 17 19.4 21 5.74 2.3 17.5 1.4 23.3-1.8zm121-120v-153h59.3v307h-59.3zm148 152c-19.4-5.8-35-22-40.8-43-1.65-5.5-1.75-10-1.75-62s0.146-57 1.75-62c5.05-17 16.5-31 31.1-38 12.6-6.1 14.6-6.3 60.3-6 38.9 0.34 40.8 0.41 46.7 2.6 16.5 6.3 31.1 21 36 38l2.24 6.7v119l-2.24 6.7c-5.74 17-19.4 32-36 38-5.93 2.3-6.9 2.3-48.6 2.5-37.9 0.21-42.8 0.051-48.6-1.5zm57.4-30c7.19-2.8 14.6-10 16.5-17 1.94-5.4 2.04-7.3 2.04-58 0-50-0.075-52-2.04-57-5.44-15-23.3-23-37.9-18-9.72 3.9-16.5 11-19.4 22-1.26 5-1.46 14-1.17 56 0.34 55 0.272 55 7.1 63 8.55 10 21.4 14 34 9.1zm123-121v-153h59.3v307h-59.3zm104 46v-107h59.3v214h-59.3zm104 0.053v-107h59.3v184l19.4-0.33c17.5-0.31 19.4-0.51 23.3-2.6 5.93-3 10.7-8.1 14.6-14l2.62-5.2 0.535-162h59.3v59c0 47-0.282 61-1.46 67-6.9 41-36 74-75.8 85-7.19 2.1-9.72 2.2-54.4 2.5l-46.7 0.34zm261 105c-20.4-5.7-36.9-23-42.8-44-1.26-5.3-1.46-14-1.26-64l0.282-58 2.72-7c6.61-17 19.4-30 36-37 5.93-2.2 7.1-2.3 46.7-2.6 45.7-0.39 47.6-0.16 60.3 6 14.6 7 25.3 21 31.1 38 1.46 4.8 1.75 10 2.14 42l0.379 36h-120v18c0 22 1.17 27 8.75 34 7.87 8.1 11.7 9 36 9 23.3 0 27.2-0.92 35-7.5 4.86-4.3 9.72-14 9.72-20v-3.8h30.1l-0.651 5.8c-2.92 26-20.4 47-43.7 54-8.46 2.3-82.6 2.2-90.4-0.023zm75.8-137c0.379-22-2.04-31-10.7-39-15.6-13-39.9-6.7-46.7 12-1.75 4.8-2.04 7.8-2.04 24v18l60.3-0.53zm-440-123v-15h59.3v30h-59.3z" style="fill:#34c9fe;stroke-width:.986"/>
     <g transform="matrix(.985 0 0 1 -75 -1.14)">
      <path d="m-3646 477c0-0.79 1.2-7.7 2.6-15 4-21 12-69 12-70 0-0.54 3.1-0.98 7-0.98 5.6 0 7 0.31 7 1.5 0 1.8-0.35 1.8 5.4-0.11 3.2-1.1 7-1.5 12-1.2 9.3 0.53 15 4.2 19 12 2.7 5.1 2.9 6 2.4 14-0.76 12-3.6 19-11 27-4.4 4.4-7.7 6.7-12 8.2-6.9 2.6-16 2.8-21 0.65-2-0.83-3.9-1.3-4.2-0.97-0.39 0.39-4.9 24-5.1 27-0.012 0.14-3.2 0.25-7 0.25-5.4 0-7-0.33-7-1.4zm44-39c5.2-3.2 8.4-8.3 9.6-15 1.3-7.7 0.56-11-3.2-15-2.4-2.4-3.7-2.9-8.2-2.9-11 0.01-19 9.3-19 23-0.032 4.4 2.4 8.8 5.7 11 5.56 1.63 11.3 1.68 15.1-1.1zm64 15c0-1.4 10-58 11-60 0.43-1.4 1.7-1.8 7.4-1.8s6.8 0.26 6.3 1.5c-0.32 0.83-0.36 1.5-0.094 1.5 0.26 0 2.4-0.67 4.7-1.5 2.3-0.82 7.1-1.5 11-1.5 7.2 0 7.2-0.034 5.3 9l-1.1 5h-5.7c-7 0-12 2.3-15 7.6-2.3 3.3-3.2 6.9-5.9 23l-3.2 19h-6.8c-3.7 0-6.8-0.44-6.8-0.97zm93-1.7c-10-5.4-14-16-11-31 2.3-12 9.3-21 19-26 6.6-3.4 18-4.2 24-1.9 8.3 3.2 15 13 15 22 0 12-4.8 24-12 31-7 6.3-13 8.8-22 9.3-6.56 0.415-9.86-0.964-13-3.4zm33.1-32c1.1-9.3-3.4-15-12-15-5.3 0-8.9 1.6-13 5.7-4 4.4-5 6.9-5.6 15l-0.56 7.4c4.27 5.09 9.06 7.19 13.2 6.9 4.5-0.33 6.8-1.1 9.6-3.3 4.92-4.01 7.71-11.5 8.36-16.7zm63.9 32c-10-5.2-14-16-11-30 2.3-12 9.3-21 19-26 6.6-3.4 18-4.3 24-1.9 2.1 0.88 4.2 1.4 4.6 1.1 0.41-0.26 1-2.5 1.4-5 0.34-2.5 1.4-8.6 2.3-14l1.6-9h7c6.7 0 7 0.082 6.5 2.2-0.28 1.2-3.8 21-7.8 44l-7.3 42h-6.8c-5.4 0-6.8-0.31-6.8-1.5 0-0.82-0.11-1.5-0.25-1.5-0.14 0.01-2.5 0.68-5.2 1.5-8.17 2.35-17.6 0.489-21.2-1.9zm25-15c4.4-3.3 7.2-9.1 8.1-17 1.1-9.3-3.4-15-12-15-5.3 0-8.9 1.6-13 5.7-3.8 4.1-4.7 6.3-5.4 14-0.73 7.1 0.68 11 4.8 14 3.6 2.6 13 1.6 17-2zm80 15c-3.9-2-6.2-4.1-8.3-7.6-4.3-6.9-4.4-13-0.67-34 1.7-9.6 3.1-18 3.1-18 0-0.39 3.2-0.71 7.1-0.71h7.1l-0.55 2.8c-3.3 17-5.9 35-5.3 38 0.4 1.6 2.2 4.2 3.9 5.9 2.9 2.7 3.7 2.9 8.8 2.5 6.5-0.47 12-3.8 15-9.1 0.92-1.8 3.1-11 4.9-21s3.4-18 3.7-18c0.29-0.29 3.4-0.39 7-0.23l6.4 0.3-11 62h-6.8c-5.4 0-6.8-0.31-6.8-1.5 0-0.82-0.11-1.5-0.25-1.5-0.14 0.01-2.5 0.68-5.2 1.5-7.9 2.4-15 2-22-1.3zm104 1.5c-5.8-1.9-12-8.4-14-15-1.5-5.1-1.5-6.9-0.54-14 2.9-19 15-32 32-33 11-0.72 20 3.5 24 12l1.9 3.8-13 6.1-3.7-3.9c-3.3-3.5-4.3-3.9-8.4-3.9-5.8 0-12 2.9-15 7.1-1.2 1.7-2.8 6.1-3.6 9.7-1.7 7.9-0.68 12 3.8 16 5.4 4.6 16 2.7 21-3.7 1.6-2 1.6-2 6.7 0.57 2.8 1.4 5.4 3 5.7 3.6 1 1.7-8.3 10-14 13-6.5 3-17 3.9-23 2zm99-0.61c-8.4-5.2-9.3-9.2-6-28 1.4-8.2 2.9-16 3.2-17 0.52-2.2 0.3-2.2-6.7-2.2h-7.2l0.64-5.4c1-8.5 0.94-8.5 9-8.8l7.1-0.29 2.2-12c1.2-6.6 2.2-12 2.3-12 0.026-0.14 3.1-0.25 6.9-0.25h6.9l-1.9 10c-2.8 16-3.1 15 5 15h6.9l-0.86 4.8c-1.8 9.9-1.1 9.2-8.8 9.2-5.7 0-7 0.3-7.4 1.8-1.4 4.9-4.8 27-4.5 30 0.33 2.9 0.48 2.9 6.7 3.2 6 0.28 6.3 0.43 5.8 2.5-0.29 1.2-0.83 4.3-1.2 6.9l-0.69 4.8h-7.1c-5.2 0-8-0.51-10-1.9zm68 1.3c0-0.76 8.9-51 10-57l1-5.2h6.9c6.7 0 6.9 0.084 6.4 2.2-0.68 3-11 59-11 60 0 0.36-3.2 0.66-7 0.66s-7-0.23-7-0.51zm77-1.1c-8-2.9-14-13-14-22 0-5.8 3.5-19 6.3-23 8.9-14 27-20 41-13 10 5.1 14 14 11 28-2.2 14-9.1 23-20 29-6.7 3.3-17 4-24 1.6zm19-14c3.3-1.7 7.7-6 9.4-9.2 0.82-1.6 1.7-6.2 2.1-10l0.56-7.3c-3.8-4.53-8.53-6.99-12.5-7-9.9 0-17 7.2-18 20-0.81 6.2 1.3 12 5.4 14 4.69 1.41 10 1.94 13-0.5zm62 15c0-0.76 8.9-51 10-57l1-5.2h7c5.8 0 6.9 0.25 6.5 1.5-0.71 1.8-0.19 1.8 4.9 0.029 5.7-2.1 16-1.9 21 0.36 5.9 2.7 11 9.2 13 16 1.1 4.9 0.88 7.3-2.2 25l-3.4 20-6.7 0.3c-5.8 0.25-6.7 0.055-6.7-1.4 0-0.93 1.4-9.6 3.1-19 3.1-17 3.1-18 1.4-21-3.3-6.9-12-8.8-20-4.2-6.3 3.7-8 7.9-11 28-1.7 9.6-3.1 18-3.1 18 0 0.39-3.2 0.71-7 0.71s-7-0.23-7-0.51z" style="fill:#93a7ac"/>
      <path d="m-3642 453 14.4 1.28-4.38 24.7-6.71 0.326-8.15-0.419z" style="fill:#4e9eed"/>
      <path d="m-2958 367 13.7 0.371-2.22 15.1-13.9-0.374z" style="fill:#34c9fe"/>
     </g>
    </g>
   </g>
  </g>
 </g>
</svg>
